<svg xmlns="http://www.w3.org/2000/svg" viewBox="0 0 190.57 47.56"><defs><style>.cls-1{fill:#1a1a18;fill-rule:evenodd;}.cls-2{fill:#009bd8;}</style></defs><g id="Layer_2" data-name="Layer 2"><g id="Layer_1-2" data-name="Layer 1"><polygon class="cls-1" points="59.09 37.85 59.09 14.96 50.72 14.96 50.72 9.54 74.59 9.54 74.59 14.96 66.22 14.96 66.22 37.85 59.09 37.85"/><path class="cls-1" d="M97.54,37.85H90.89V35.49a18.08,18.08,0,0,1-3.18,2.19,7.37,7.37,0,0,1-3.44.76,6.28,6.28,0,0,1-5-2q-1.78-2-1.78-6V16.51h6.66V27.09c0,1.11,0,2,.08,2.7a5.35,5.35,0,0,0,.42,1.77,2.05,2.05,0,0,0,1,1,3.77,3.77,0,0,0,1.78.35,5.2,5.2,0,0,0,1.68-.35,7.39,7.39,0,0,0,1.79-.92V16.51h6.65Z"/><path class="cls-1" d="M112.42,38.28q-4.07,0-5.93-1.67c-1.24-1.12-1.85-2.94-1.85-5.48v-10h-2.53V16.51h2.53V10.4h6.65v6.11h6.43v4.64h-6.43v7.58c0,.75,0,1.41,0,2a4.23,4.23,0,0,0,.31,1.51,2.09,2.09,0,0,0,.94,1.06,4,4,0,0,0,2,.39,5.44,5.44,0,0,0,1.4-.24,5.63,5.63,0,0,0,1.22-.42h.57v4.68a17.35,17.35,0,0,1-2.3.45A23.06,23.06,0,0,1,112.42,38.28Z"/><path class="cls-1" d="M141.5,27.19c0,3.51-1,6.28-2.88,8.29s-4.64,3-8.16,3-6.2-1-8.13-3-2.91-4.78-2.91-8.29,1-6.32,2.91-8.33,4.64-3,8.13-3,6.22,1,8.15,3,2.89,4.79,2.89,8.31Zm-6.81,0a13.22,13.22,0,0,0-.32-3.15,5.82,5.82,0,0,0-.87-2A3.24,3.24,0,0,0,132.16,21a4.48,4.48,0,0,0-1.7-.31,4.63,4.63,0,0,0-1.62.27A3.2,3.2,0,0,0,127.5,22a5.67,5.67,0,0,0-.92,2,13.29,13.29,0,0,0-.34,3.24,12.77,12.77,0,0,0,.32,3.15,5.82,5.82,0,0,0,.85,1.92,3,3,0,0,0,1.33,1.08,4.49,4.49,0,0,0,1.78.35,4.32,4.32,0,0,0,1.64-.35,3,3,0,0,0,1.32-1,5.62,5.62,0,0,0,.9-2A13,13,0,0,0,134.69,27.23Z"/><path class="cls-1" d="M165,37.85h-6.66V35.63c-.44.35-.93.74-1.48,1.14a9,9,0,0,1-1.46.91,7.35,7.35,0,0,1-1.58.57,8.42,8.42,0,0,1-1.87.19,6.75,6.75,0,0,1-5.8-3,13.7,13.7,0,0,1-2.14-8.07,14.39,14.39,0,0,1,.73-4.85,11.39,11.39,0,0,1,2-3.57,8.36,8.36,0,0,1,2.83-2.19,7.86,7.86,0,0,1,3.51-.81,9.2,9.2,0,0,1,2.75.35,16.06,16.06,0,0,1,2.51,1.1V8.26H165V37.85ZM158.38,32V21.45a5.25,5.25,0,0,0-1.3-.41,7,7,0,0,0-1.37-.16,4.16,4.16,0,0,0-3.63,1.68,7.89,7.89,0,0,0-1.22,4.7,8.36,8.36,0,0,0,1,4.58A3.53,3.53,0,0,0,155,33.26a5,5,0,0,0,1.78-.35A5.93,5.93,0,0,0,158.38,32Z"/><path class="cls-1" d="M190.57,37.85h-6.66V35.49a18.08,18.08,0,0,1-3.18,2.19,7.37,7.37,0,0,1-3.44.76,6.28,6.28,0,0,1-5-2q-1.79-2-1.78-6V16.51h6.66V27.09c0,1.11,0,2,.08,2.7a5.35,5.35,0,0,0,.42,1.77,2.05,2.05,0,0,0,.95,1,3.77,3.77,0,0,0,1.78.35,5.14,5.14,0,0,0,1.68-.35,7.22,7.22,0,0,0,1.79-.92V16.51h6.66Z"/><rect class="cls-2" x="16.42" y="3.05" width="14.71" height="14.71" transform="translate(-0.39 19.86) rotate(-45)"/><rect class="cls-2" x="16.42" y="29.79" width="14.71" height="14.71" transform="translate(-19.31 27.7) rotate(-45)"/><rect class="cls-2" x="29.79" y="16.42" width="14.71" height="14.71" transform="translate(-5.93 33.23) rotate(-45)"/><rect class="cls-2" x="3.05" y="16.42" width="14.71" height="14.71" transform="translate(-13.77 14.32) rotate(-45)"/></g></g></svg>